<?xml version="1.0" standalone="no"?>
<!DOCTYPE svg PUBLIC "-//W3C//DTD SVG 20010904//EN"
 "http://www.w3.org/TR/2001/REC-SVG-20010904/DTD/svg10.dtd">
<svg version="1.0" xmlns="http://www.w3.org/2000/svg"
 width="1217.000000pt" height="1200.000000pt" viewBox="0 0 1217.000000 1200.000000"
 preserveAspectRatio="xMidYMid meet">

<g transform="translate(0.000000,1200.000000) scale(0.100000,-0.100000)"
fill="#000000" stroke="none">
<path d="M6166 10277 c-27 -62 -78 -171 -112 -243 -57 -121 -70 -139 -151
-221 -184 -187 -408 -321 -728 -434 -124 -44 -159 -62 -261 -130 -261 -175
-504 -443 -611 -675 l-23 -51 -96 -7 c-321 -24 -589 -123 -837 -310 -90 -67
-264 -243 -422 -426 -173 -199 -270 -295 -361 -356 -92 -61 -264 -146 -538
-263 -104 -45 -200 -88 -214 -95 -24 -13 -18 -17 173 -126 l197 -113 25 -55
c71 -161 117 -413 143 -777 20 -286 52 -467 116 -667 75 -232 187 -404 383
-589 l118 -111 -30 -76 c-77 -200 -110 -366 -110 -562 0 -266 53 -435 215
-682 44 -67 102 -168 128 -223 129 -272 199 -620 201 -1000 0 -141 20 -389 31
-401 17 -16 294 165 398 261 90 83 162 123 285 162 87 26 98 27 305 27 195 0
227 -2 341 -27 70 -15 199 -49 287 -76 228 -70 387 -90 582 -71 203 19 402 77
566 164 l86 46 39 -21 c80 -40 217 -91 324 -119 182 -48 308 -63 525 -63 289
0 524 41 832 143 147 49 212 60 345 60 173 0 219 -26 465 -268 106 -104 169
-160 172 -151 19 60 39 283 41 469 3 192 6 226 28 315 48 189 133 355 259 506
143 171 253 363 317 559 105 315 92 654 -36 942 l-26 58 69 72 c243 256 388
505 458 788 31 128 41 214 61 525 28 441 45 538 112 668 31 61 65 99 222 253
l185 182 -150 46 c-82 26 -171 54 -199 63 -84 26 -224 104 -330 182 -134 100
-277 245 -420 426 -249 314 -471 497 -727 595 -122 47 -334 89 -535 105 l-82
7 -47 86 c-219 406 -538 700 -849 782 -105 28 -335 141 -469 230 -113 76 -272
220 -330 299 -19 25 -89 141 -156 256 -67 116 -125 213 -128 217 -4 3 -29 -44
-56 -105z m144 -254 c116 -200 217 -315 390 -442 168 -125 408 -251 554 -290
321 -88 621 -372 829 -788 l46 -90 108 -7 c573 -37 836 -179 1219 -658 151
-188 272 -314 395 -410 174 -135 290 -200 452 -249 l107 -33 -104 -105 c-148
-151 -204 -246 -241 -405 -21 -93 -33 -204 -55 -536 -22 -332 -30 -394 -62
-515 -69 -260 -197 -473 -421 -700 l-138 -140 45 -95 c75 -157 105 -267 121
-445 24 -267 -109 -663 -302 -899 -169 -206 -254 -348 -312 -521 -52 -155 -63
-244 -62 -492 1 -138 -2 -224 -9 -228 -5 -3 -67 50 -138 118 -190 184 -285
224 -512 214 -115 -4 -137 -8 -270 -52 -177 -57 -350 -99 -490 -119 -403 -58
-791 -4 -1106 154 l-98 49 -55 -33 c-258 -155 -570 -228 -848 -196 -112 12
-133 17 -333 79 -74 23 -202 56 -285 73 -142 30 -162 32 -365 32 -190 0 -224
-3 -295 -22 -132 -36 -237 -94 -329 -181 -85 -81 -222 -191 -237 -191 -5 0 -9
98 -9 223 0 256 -11 390 -46 565 -52 263 -144 484 -290 703 -94 141 -140 238
-175 375 -32 124 -33 362 -1 506 27 122 63 231 112 334 l38 82 -120 103 c-367
317 -481 585 -533 1249 -28 360 -71 604 -136 767 -44 112 -65 137 -154 187
-131 74 -129 66 -23 110 154 64 388 182 471 236 105 70 176 137 336 320 203
232 318 354 401 424 249 211 547 322 879 330 l115 3 33 78 c97 226 286 453
527 629 100 74 182 121 246 141 369 118 710 330 886 549 62 77 81 111 145 254
16 34 30 62 32 62 3 0 33 -48 67 -107z"/>
<path d="M6195 9769 c-177 -241 -507 -460 -909 -604 -176 -63 -296 -144 -471
-320 -175 -174 -264 -311 -322 -493 l-26 -83 -31 7 c-17 4 -92 7 -166 7 -257
-1 -486 -71 -695 -213 -125 -85 -238 -196 -486 -480 -242 -276 -327 -345 -585
-475 l-142 -71 20 -24 c28 -35 81 -143 107 -219 60 -176 101 -420 126 -761 31
-403 87 -635 200 -828 71 -122 142 -198 350 -378 l134 -115 -54 -107 c-107
-215 -149 -385 -150 -597 0 -219 40 -345 170 -541 216 -323 318 -678 341
-1176 l7 -158 41 38 c98 90 245 166 404 210 92 25 109 26 337 26 232 0 245 -1
390 -32 83 -17 211 -50 285 -73 225 -70 242 -72 410 -73 113 0 178 5 238 18
172 37 322 100 457 191 39 26 75 48 80 48 6 0 37 -17 69 -38 128 -82 319 -151
515 -187 90 -16 158 -21 306 -21 274 -1 446 29 766 132 107 34 185 53 254 60
218 24 413 -35 548 -167 l47 -46 0 116 c0 316 117 625 334 883 171 204 281
436 317 669 17 106 6 323 -21 421 -25 92 -82 220 -139 310 l-40 62 79 63 c234
184 430 457 515 716 40 121 53 217 75 551 11 169 27 358 35 418 32 234 97 390
217 521 l38 41 -45 17 c-68 26 -241 134 -341 212 -133 104 -284 259 -436 449
-361 453 -598 575 -1171 604 l-130 6 -71 140 c-94 185 -199 337 -319 461 -149
156 -277 236 -451 283 -146 40 -407 177 -576 302 -106 78 -256 223 -322 312
-27 37 -51 67 -51 67 -1 0 -29 -37 -62 -81z m19 -933 c27 -58 51 -96 62 -99
11 -3 61 -11 112 -18 50 -6 92 -15 92 -20 0 -4 -35 -40 -78 -80 l-79 -73 19
-104 c10 -58 17 -107 14 -109 -2 -3 -47 17 -100 44 l-95 49 -96 -49 c-53 -27
-98 -48 -100 -46 -2 2 5 51 16 109 l19 105 -80 78 c-44 43 -80 79 -80 81 0 2
44 9 98 16 53 7 104 16 112 20 8 5 35 49 60 99 24 50 48 91 52 91 5 0 28 -42
52 -94z m1183 -1096 c18 -10 40 -32 49 -47 10 -15 19 -30 21 -32 1 -2 14 10
28 27 45 54 129 66 189 27 l26 -17 -24 -42 c-23 -39 -37 -79 -50 -138 -6 -28
-13 -30 -108 -43 l-47 -6 6 -83 6 -83 -34 -7 c-19 -3 -52 -15 -73 -27 -38 -20
-40 -20 -64 -2 -56 42 -76 120 -46 178 8 16 12 31 7 32 -33 12 -72 47 -87 78
-45 94 25 205 129 205 22 0 54 -9 72 -20z m-2776 -92 c14 -68 -5 -145 -49
-197 l-28 -34 -22 57 c-36 94 -31 118 43 209 16 20 33 33 37 29 4 -4 13 -33
19 -64z m257 1 c-32 -58 -79 -96 -140 -114 -74 -22 -91 -20 -83 8 10 31 51
101 69 116 22 19 65 29 124 30 l53 1 -23 -41z m-386 -240 c1 -43 -5 -67 -28
-109 -16 -30 -34 -55 -41 -57 -14 -5 -53 97 -53 141 0 24 13 50 47 95 l48 62
13 -38 c7 -21 14 -63 14 -94z m374 88 c10 -10 -78 -105 -109 -118 -22 -9 -44
-9 -98 0 -38 7 -69 16 -69 20 0 7 39 45 72 70 34 26 94 41 145 38 29 -2 56 -6
59 -10z m-152 -174 c-9 -16 -28 -44 -41 -64 -13 -20 -35 -41 -49 -48 -32 -14
-151 -15 -160 0 -7 11 42 67 88 100 28 21 88 36 147 38 l33 1 -18 -27z m-344
-139 c0 -45 -6 -73 -27 -113 -25 -51 -27 -53 -41 -35 -27 36 -52 99 -52 135 0
26 11 51 42 94 l42 59 18 -39 c10 -24 18 -65 18 -101z m3528 66 c40 -25 77
-99 68 -140 l-5 -28 53 5 c75 8 130 -24 155 -89 10 -26 8 -28 -40 -53 -28 -14
-70 -41 -95 -61 l-44 -36 -64 35 -64 36 -42 -70 c-22 -38 -42 -69 -44 -69 -2
0 -23 7 -46 15 -23 8 -55 15 -71 15 -35 0 -49 24 -49 82 0 52 28 101 70 123
29 15 30 16 15 45 -8 16 -15 49 -15 74 0 37 6 52 32 82 18 20 41 40 52 44 38
16 100 11 134 -10z m-3298 -97 c0 -20 -63 -114 -85 -129 -28 -19 -134 -29
-154 -16 -11 8 -10 15 7 38 34 49 78 85 118 99 42 15 114 20 114 8z m-351 -98
c27 -58 28 -144 1 -204 l-20 -44 -19 24 c-33 42 -61 103 -61 132 0 33 57 150
69 143 5 -3 18 -26 30 -51z m251 -79 c0 -2 -13 -34 -30 -70 -20 -45 -39 -72
-60 -85 -31 -18 -136 -38 -147 -27 -10 10 52 108 81 129 42 30 156 69 156 53z
m-340 -158 c24 -43 30 -65 30 -114 0 -60 -15 -124 -29 -124 -9 0 -63 66 -79
97 -7 12 -12 35 -12 51 0 35 39 142 51 142 5 0 22 -24 39 -52z m250 -60 c0
-24 -29 -107 -45 -131 -18 -28 -68 -51 -133 -62 -42 -7 -42 -7 -32 19 35 92
69 133 140 165 52 24 70 26 70 9z m-305 -179 c20 -23 43 -56 51 -75 15 -36 19
-164 5 -164 -17 0 -104 85 -116 115 -9 23 -10 47 -2 98 6 37 14 67 17 67 4 0
24 -18 45 -41z m260 -66 c-10 -94 -25 -118 -95 -153 -33 -16 -64 -30 -69 -30
-24 0 11 120 47 162 22 26 106 88 120 88 2 0 0 -30 -3 -67z m3730 -12 c61 -35
85 -122 52 -188 -15 -28 -15 -32 -1 -37 9 -3 25 -6 36 -6 31 0 95 -70 103
-113 11 -56 3 -67 -52 -67 -25 0 -74 -8 -106 -17 l-60 -16 -31 38 c-70 87 -54
83 -125 31 -35 -25 -66 -46 -70 -46 -4 0 -20 13 -35 29 -16 16 -41 35 -57 41
-24 11 -29 18 -29 49 0 51 33 99 83 121 23 11 50 20 60 20 13 0 16 5 11 24 -6
27 23 103 49 125 27 21 90 40 117 34 14 -3 38 -13 55 -22z m-3987 -175 c45
-43 72 -108 72 -173 l0 -34 -51 27 c-84 46 -99 71 -99 166 0 91 -4 91 78 14z
m259 -22 c-3 -41 -12 -85 -20 -98 -8 -12 -42 -37 -76 -55 l-61 -32 0 43 c0 68
42 142 104 184 28 18 53 34 55 34 2 0 1 -34 -2 -76z m25 -191 c3 -42 0 -80 -7
-99 -16 -40 -102 -101 -118 -85 -17 17 -13 102 6 138 17 32 94 113 108 113 4
0 9 -30 11 -67z m-220 -50 c49 -52 87 -163 56 -163 -27 0 -116 49 -135 74 -12
15 -24 50 -28 79 -3 28 -9 60 -12 70 -4 16 1 16 44 -6 26 -14 60 -38 75 -54z
m4938 15 c0 -7 -5 -57 -12 -111 -11 -91 -14 -98 -33 -93 -11 2 -86 12 -167 22
l-148 18 0 28 0 29 53 -7 c28 -4 93 -12 142 -19 58 -8 92 -9 96 -2 4 5 10 40
13 78 7 65 9 69 32 69 13 0 24 -6 24 -12z m-5396 -24 c18 -47 9 -57 -109 -119
-63 -33 -115 -63 -115 -66 0 -3 51 -13 113 -23 164 -26 157 -23 157 -62 0 -19
-3 -34 -6 -34 -3 0 -75 -12 -160 -26 -86 -14 -157 -24 -158 -23 -2 2 -6 14
-10 25 -8 25 -5 26 119 45 44 6 83 15 88 18 4 4 -44 15 -108 25 -96 15 -115
21 -121 38 -8 27 -1 32 113 94 54 29 91 54 83 54 -8 0 -50 -7 -93 -15 -112
-21 -127 -20 -127 9 0 22 6 25 68 35 37 7 101 18 142 25 101 19 117 19 124 0z
m3895 -53 c34 -41 98 -207 101 -262 0 -4 -17 -3 -37 2 -56 12 -115 -7 -162
-51 -37 -36 -41 -37 -56 -20 -19 21 -115 74 -115 63 0 -4 7 -26 15 -48 8 -22
14 -50 15 -62 l0 -22 -45 26 c-25 13 -45 21 -45 16 0 -4 11 -30 25 -57 29 -58
28 -87 -12 -260 -24 -102 -26 -164 -9 -207 7 -17 -21 -35 -204 -132 -41 -22
-82 -45 -90 -52 -8 -7 -42 -27 -75 -45 -33 -17 -112 -61 -175 -98 -63 -37
-139 -80 -168 -97 -29 -16 -134 -81 -234 -143 l-182 -112 -65 40 c-36 22 -111
68 -165 102 -99 63 -99 63 -113 118 -70 281 -373 750 -787 1215 -39 44 -78 88
-86 98 -14 18 24 19 1320 12 1222 -6 1336 -8 1349 -24z m-3166 -54 c25 -78 22
-117 -11 -163 -42 -57 -61 -71 -73 -53 -31 48 -32 123 -1 184 19 37 54 85 62
85 4 0 14 -24 23 -53z m-208 -102 c22 -12 49 -36 61 -52 25 -33 57 -94 52 -98
-9 -8 -135 17 -156 31 -22 14 -60 85 -76 141 -6 20 -5 21 36 11 24 -5 61 -20
83 -33z m305 -75 c16 -33 30 -72 30 -87 0 -30 -54 -133 -69 -133 -5 0 -19 15
-30 34 -30 49 -29 132 4 196 14 28 27 50 30 50 3 0 18 -27 35 -60z m4536 38
c-3 -13 -6 -26 -6 -30 0 -4 -25 -10 -55 -13 -30 -4 -55 -10 -55 -14 -1 -3 -7
-32 -14 -63 l-14 -57 44 -28 c38 -24 44 -32 39 -53 -4 -14 -8 -26 -10 -28 -2
-2 -69 41 -149 95 -143 97 -161 116 -138 149 4 6 79 22 167 36 207 33 199 33
191 6z m-1146 -36 c51 -25 80 -74 80 -135 0 -47 -3 -54 -48 -97 l-48 -46 24
-18 c52 -40 65 -131 27 -189 l-17 -27 -42 24 c-39 23 -79 37 -138 50 -23 5
-28 12 -33 54 -3 26 -9 59 -11 74 l-5 27 -85 -6 -84 -6 0 25 c0 14 -11 46 -25
72 -24 45 -24 48 -8 72 20 31 83 64 120 64 15 -1 41 -7 58 -14 28 -12 31 -11
50 18 47 70 118 92 185 58z m-3556 -136 c24 -14 58 -45 75 -68 l31 -42 -22 -9
c-30 -11 -119 -2 -147 15 -21 12 -91 116 -91 133 0 17 113 -5 154 -29z m306
-123 c0 -38 -29 -115 -48 -127 -18 -11 -60 52 -68 99 -7 52 0 103 24 151 l16
34 38 -59 c27 -43 38 -71 38 -98z m-977 121 c76 -5 107 -11 107 -20 0 -7 2
-19 5 -26 4 -10 -40 -52 -125 -122 -73 -59 -137 -109 -145 -112 -19 -8 -30 47
-13 61 8 5 27 20 42 32 l27 22 -18 57 c-19 61 -17 60 -84 69 -40 5 -48 10 -52
32 l-5 26 77 -6 c42 -4 124 -10 184 -13z m5067 -99 c0 -19 -5 -25 -21 -25 -72
0 -119 -114 -69 -168 43 -46 120 -70 160 -49 60 31 95 143 51 167 -31 16 -37
13 -51 -30 -13 -39 -40 -54 -55 -29 -6 8 28 121 41 137 5 7 119 -40 126 -51
17 -26 8 -123 -14 -167 -30 -57 -65 -82 -127 -88 -65 -6 -150 32 -180 82 -25
39 -28 111 -7 159 19 48 70 87 112 87 30 0 34 -3 34 -25z m-3955 -154 c4 -18
-2 -50 -14 -87 -12 -32 -21 -60 -21 -63 0 -3 -15 10 -34 28 -55 54 -70 147
-36 236 l11 28 44 -57 c24 -31 46 -69 50 -85z m-317 72 c44 -21 116 -88 108
-102 -3 -5 -35 -12 -70 -16 -80 -9 -108 5 -165 79 l-42 56 67 0 c41 0 79 -6
102 -17z m-600 -90 c40 -98 42 -150 6 -193 -56 -66 -169 -97 -234 -63 -27 14
-44 35 -72 93 -21 41 -38 82 -38 91 0 10 47 36 148 81 81 36 150 66 153 67 3
1 20 -34 37 -76z m1061 -66 c10 -14 12 -40 9 -93 -3 -41 -8 -77 -11 -81 -11
-11 -74 45 -91 80 -16 35 -23 167 -10 180 7 7 80 -54 103 -86z m-304 -11 c28
-13 64 -36 80 -50 36 -31 29 -39 -56 -55 -75 -15 -110 -1 -167 67 l-43 51 33
4 c75 9 105 6 153 -17z m410 -57 c63 -48 79 -84 69 -158 -7 -56 -11 -58 -54
-36 -37 19 -76 87 -85 148 -6 43 0 87 11 87 3 0 29 -18 59 -41z m3570 -19 c0
-20 -5 -25 -25 -26 -53 -2 -100 -51 -100 -104 0 -60 71 -122 140 -124 49 -1
95 40 111 98 10 36 9 42 -11 58 -31 25 -35 23 -55 -22 -20 -44 -23 -46 -50
-27 -17 13 -16 17 16 75 18 34 37 62 42 62 19 0 105 -51 111 -65 17 -45 -1
-119 -42 -174 -46 -62 -131 -78 -209 -40 -109 53 -134 177 -55 270 30 37 56
49 97 46 25 -2 30 -6 30 -27z m-3765 -71 c40 -21 70 -44 70 -52 0 -11 -111
-47 -144 -47 -26 0 -48 12 -91 46 -31 26 -53 50 -48 55 31 31 153 30 213 -2z
m-860 -8 c5 -11 10 -22 10 -24 0 -2 -47 -32 -104 -67 -111 -67 -135 -94 -115
-133 18 -35 51 -67 69 -67 9 0 65 29 125 64 105 62 110 64 123 45 7 -10 11
-23 8 -28 -3 -4 -49 -34 -103 -66 -150 -90 -217 -85 -264 19 -41 90 -21 125
118 210 59 36 111 66 115 66 4 0 12 -9 18 -19z m1029 -106 c23 -8 51 -21 62
-29 20 -14 19 -15 -32 -45 -74 -43 -118 -41 -193 5 -31 20 -54 40 -49 45 16
16 88 38 129 38 23 1 60 -6 83 -14z m3492 -147 c71 -50 129 -97 129 -103 0
-32 -29 -37 -173 -34 l-144 4 96 -68 c53 -37 97 -71 99 -76 1 -4 -5 -15 -15
-24 -17 -14 -27 -9 -150 79 -73 52 -133 101 -133 108 0 34 28 39 170 32 77 -3
140 -5 140 -3 0 2 -43 34 -95 71 -52 37 -95 71 -95 75 0 10 22 31 33 31 5 0
67 -41 138 -92z m-4223 -178 c62 -46 87 -136 52 -190 -13 -20 -46 0 -42 26 10
60 5 78 -31 111 -23 21 -47 33 -65 33 -63 0 -142 -72 -142 -129 0 -38 35 -89
75 -108 33 -16 36 -16 55 2 l20 19 -31 32 c-27 28 -30 36 -19 49 7 8 18 15 24
15 12 0 96 -93 96 -107 0 -5 -21 -26 -46 -47 -38 -32 -50 -37 -78 -32 -78 15
-146 98 -146 179 0 72 32 121 105 161 44 24 131 17 173 -14z m3985 -55 c93
-87 117 -119 117 -158 0 -66 -76 -147 -138 -147 -45 0 -65 13 -171 109 -77 70
-80 75 -65 93 10 10 20 18 23 18 4 0 43 -34 88 -74 45 -41 92 -80 103 -86 28
-15 69 6 93 47 19 32 18 33 -3 67 -11 19 -25 36 -29 38 -5 2 -38 31 -75 65
-60 57 -65 65 -54 83 7 11 17 20 21 20 5 0 45 -34 90 -75z m-264 -154 c9 -16
4 -25 -28 -54 l-38 -35 93 -108 c88 -101 92 -109 77 -126 -9 -10 -19 -18 -23
-18 -3 0 -46 47 -96 105 -49 57 -92 105 -96 105 -4 0 -23 -14 -43 -31 -29 -26
-38 -29 -50 -19 -8 7 -15 18 -14 24 0 11 188 176 201 176 4 0 12 -9 17 -19z
m-3484 -36 c19 -15 19 -17 -19 -123 -21 -59 -48 -135 -59 -169 -22 -64 -35
-75 -57 -47 -11 12 -11 24 2 65 l16 49 -46 44 -47 44 -47 -26 -48 -27 -21 22
-22 21 159 81 c87 44 161 80 164 80 3 0 14 -6 25 -14z m148 -127 c14 -11 17
-36 19 -155 l3 -142 63 90 c62 88 79 101 101 76 8 -10 -11 -44 -80 -143 -49
-71 -94 -133 -99 -138 -6 -6 -18 -2 -30 9 -20 18 -21 26 -14 165 l6 145 -68
-97 c-38 -54 -74 -98 -80 -98 -6 0 -17 7 -24 15 -10 12 -4 27 35 83 25 37 68
97 93 134 26 38 50 68 53 68 3 0 13 -6 22 -12z m3086 -210 c50 -72 91 -138 91
-145 0 -7 -9 -17 -19 -23 -18 -9 -30 5 -116 131 -89 131 -94 142 -78 155 10 7
21 14 25 14 4 0 48 -59 97 -132z m-151 70 c20 -20 14 -32 -33 -58 l-45 -26 71
-124 c67 -115 70 -124 53 -137 -10 -7 -21 -13 -25 -13 -4 0 -38 53 -74 118
-37 64 -69 119 -72 122 -2 2 -24 -7 -48 -20 -44 -24 -59 -22 -67 7 -2 10 198
138 223 142 3 1 10 -4 17 -11z m-2613 -70 c91 -51 109 -75 108 -146 -1 -92
-83 -192 -158 -192 -35 0 -198 75 -193 89 11 32 154 291 160 291 5 0 42 -19
83 -42z m2368 -119 l31 -31 -25 -13 c-21 -12 -27 -11 -45 6 -26 24 -51 24 -91
-1 -35 -21 -42 -50 -18 -70 11 -9 29 -10 81 -1 81 14 117 8 144 -26 75 -96
-82 -229 -200 -168 -33 17 -49 53 -29 66 21 13 34 11 54 -11 21 -24 43 -25 90
-6 42 18 60 48 45 77 -11 19 -17 20 -106 13 -90 -6 -96 -6 -119 16 -19 18 -25
34 -25 65 0 47 22 74 80 99 57 25 97 20 133 -15z m-2056 -27 c13 -8 32 -372
20 -372 -3 0 -17 4 -31 10 -24 9 -26 15 -26 63 l0 54 -57 22 -56 22 -37 -36
c-37 -36 -54 -42 -79 -26 -11 7 14 40 105 140 114 125 134 140 161 123z m1781
-58 c-2 -13 -25 -25 -78 -41 -41 -12 -80 -25 -87 -27 -8 -4 -9 -15 -1 -45 6
-23 13 -41 17 -41 3 0 42 11 86 25 61 19 81 22 87 12 17 -27 5 -37 -76 -61
l-84 -26 10 -41 c6 -22 16 -43 22 -45 6 -2 49 7 95 21 47 14 88 25 93 25 4 0
8 -11 8 -24 0 -22 -9 -27 -87 -51 -49 -14 -101 -30 -117 -36 -16 -5 -31 -7
-34 -5 -9 10 -100 321 -93 323 74 28 228 68 234 63 5 -4 7 -16 5 -26z m-1469
-58 c5 -11 14 -76 21 -144 l13 -123 71 121 c63 109 73 120 98 120 16 0 31 -6
34 -14 5 -14 -51 -314 -60 -324 -10 -9 -46 11 -46 26 0 9 9 57 20 106 11 49
18 91 16 93 -2 2 -30 -41 -62 -97 -52 -90 -61 -101 -84 -98 -24 3 -25 7 -41
128 -17 137 -18 137 -49 -15 -15 -76 -17 -80 -44 -83 -25 -3 -28 -1 -23 20 3
13 17 84 32 158 14 74 28 140 30 146 6 19 66 3 74 -20z m1136 -20 c29 -13 74
-61 64 -70 -27 -23 -42 -21 -70 7 -26 26 -35 29 -72 24 -82 -11 -120 -93 -83
-181 27 -64 91 -83 162 -50 42 20 46 26 38 59 -4 17 -12 24 -23 21 -9 -2 -31
-7 -48 -11 -30 -6 -33 -4 -33 18 0 29 9 34 88 43 l59 6 10 -63 c12 -74 6 -86
-61 -119 -49 -23 -122 -26 -170 -6 -94 39 -124 199 -53 281 41 48 129 67 192
41z m-648 -191 c28 -88 52 -166 53 -172 0 -8 -12 -13 -29 -13 -26 0 -30 5 -43
53 l-15 52 -64 3 -65 3 -22 -46 c-17 -36 -27 -45 -47 -45 -14 0 -25 4 -25 10
0 5 33 79 73 165 71 152 73 155 102 153 29 -3 30 -6 82 -163z m357 143 c3 -13
7 -89 10 -170 l5 -148 -29 0 c-24 0 -38 14 -106 108 -42 59 -81 111 -86 117
-5 6 -6 -42 -2 -113 l7 -122 -25 0 c-24 0 -25 3 -32 77 -3 42 -6 118 -6 170
l0 94 27 -3 c21 -2 44 -28 111 -118 l85 -115 -7 123 -6 122 25 0 c18 0 26 -6
29 -22z m-2325 -767 c11 -32 21 -63 21 -70 0 -31 18 -4 39 59 21 60 27 70 48
70 19 0 23 -5 23 -33 0 -19 3 -68 6 -110 7 -74 6 -77 -15 -77 -20 0 -21 5 -22
78 l0 77 -28 -75 c-15 -41 -34 -76 -42 -78 -10 -2 -23 21 -41 75 l-26 78 -1
-77 c-1 -73 -2 -78 -22 -78 -21 0 -22 3 -15 61 3 34 6 84 6 110 0 45 2 49 24
49 19 0 27 -10 45 -59z m281 44 c0 -11 -12 -15 -45 -15 -43 0 -45 -1 -45 -30
0 -28 2 -30 40 -30 29 0 40 -4 40 -15 0 -11 -11 -15 -40 -15 -38 0 -40 -2 -40
-30 0 -29 2 -30 45 -30 38 0 45 -3 45 -20 0 -18 -7 -20 -60 -20 l-60 0 0 110
0 110 60 0 c47 0 60 -3 60 -15z m52 -26 l3 -41 30 41 c27 36 35 41 72 41 l42
0 3 -41 3 -41 30 41 c19 26 38 41 53 41 26 0 29 -12 7 -30 -9 -7 -24 -25 -35
-40 -19 -26 -19 -26 13 -74 l31 -49 31 94 c25 74 36 95 52 97 17 3 26 -11 56
-95 20 -54 36 -93 36 -86 1 9 9 9 31 1 23 -7 34 -7 45 2 25 21 17 37 -27 62
-34 18 -44 30 -46 54 -4 42 25 66 74 62 27 -2 40 -8 42 -20 3 -15 -3 -17 -35
-15 -32 2 -38 -1 -38 -17 0 -12 14 -27 35 -39 41 -23 50 -34 50 -64 0 -43 -33
-63 -104 -62 -65 1 -65 1 -77 36 -10 30 -14 34 -42 31 -26 -2 -33 -9 -41 -35
-8 -28 -13 -33 -40 -33 -26 0 -36 7 -59 45 -16 25 -33 45 -38 45 -5 0 -9 -20
-9 -45 l0 -45 -37 0 c-34 0 -41 5 -66 45 -16 25 -33 45 -38 45 -5 0 -9 -20 -9
-45 0 -38 -3 -45 -20 -45 -19 0 -20 7 -20 110 0 102 1 110 19 110 16 0 20 -8
23 -41z m698 -47 c0 -105 -13 -132 -66 -132 -28 0 -34 4 -34 21 0 15 4 19 16
15 33 -13 44 13 44 100 0 77 2 84 20 84 18 0 20 -7 20 -88z m146 -11 c39 -108
41 -121 15 -121 -12 0 -21 11 -27 33 -8 26 -15 33 -41 35 -28 3 -32 -1 -43
-32 -8 -26 -17 -36 -32 -36 -12 0 -18 5 -16 13 3 6 20 56 38 110 27 84 35 98
52 95 16 -2 28 -25 54 -97z m238 27 l46 -72 0 72 c0 65 2 72 20 72 18 0 20 -8
22 -97 l3 -98 34 98 c29 84 36 98 54 95 16 -2 27 -24 54 -103 39 -116 39 -115
14 -115 -12 0 -21 11 -27 33 -8 26 -15 33 -41 35 -28 3 -32 -1 -43 -33 -11
-34 -14 -36 -53 -33 -38 3 -43 7 -84 73 l-43 69 0 -72 c0 -65 -2 -72 -20 -72
-19 0 -20 7 -20 95 l0 95 -30 0 -30 0 0 -95 c0 -88 -1 -95 -20 -95 -19 0 -20
7 -20 95 l0 95 -30 0 c-20 0 -30 5 -30 15 0 12 18 15 99 15 l99 0 46 -72z
m434 56 c15 -10 22 -25 22 -49 0 -41 -20 -62 -65 -71 -33 -6 -35 -9 -35 -45 0
-28 -4 -39 -15 -39 -12 0 -15 19 -15 110 l0 110 43 0 c23 0 53 -7 65 -16z
m142 -89 c19 -57 31 -107 27 -111 -13 -13 -35 6 -42 35 -6 27 -11 31 -40 31
-29 0 -35 -4 -45 -35 -8 -25 -18 -35 -32 -35 -12 0 -18 5 -16 13 3 6 20 56 37
110 28 84 36 97 55 97 19 0 26 -13 56 -105z m80 64 l0 -41 33 40 c20 25 41 41
55 41 30 1 28 -5 -14 -51 -32 -36 -34 -41 -21 -61 8 -12 20 -32 27 -44 8 -12
21 -21 29 -21 9 0 25 -3 37 -7 23 -7 59 19 48 36 -3 5 -22 18 -43 29 -55 28
-66 65 -31 100 19 19 88 29 103 14 14 -15 -6 -33 -32 -28 -18 4 -32 0 -41 -11
-16 -19 -12 -23 49 -57 26 -14 31 -23 31 -52 0 -47 -28 -66 -101 -65 -54 1
-56 2 -85 45 -16 24 -32 44 -36 44 -5 0 -8 -20 -8 -45 0 -38 -3 -45 -20 -45
-19 0 -20 7 -20 110 0 103 1 110 20 110 17 0 20 -7 20 -41z m377 -64 c18 -54
33 -103 33 -107 0 -4 -9 -8 -19 -8 -13 0 -23 11 -31 36 -11 31 -15 35 -43 32
-26 -2 -33 -9 -41 -35 -6 -22 -15 -33 -27 -33 -11 0 -19 4 -19 8 0 7 48 153
65 200 3 7 15 12 27 10 17 -2 27 -21 55 -103z m163 11 c0 -108 -10 -126 -66
-126 -36 0 -37 0 -28 24 3 8 12 12 21 9 29 -11 43 26 43 109 0 63 3 78 15 78
12 0 15 -17 15 -94z m140 79 c0 -11 -11 -15 -40 -15 -38 0 -40 -2 -40 -30 0
-28 2 -30 40 -30 29 0 40 -4 40 -15 0 -11 -11 -15 -40 -15 -38 0 -40 -2 -40
-30 0 -29 2 -30 45 -30 38 0 45 -3 45 -20 0 -18 -7 -20 -65 -20 l-65 0 0 110
0 110 60 0 c47 0 60 -3 60 -15z m100 -57 l45 -71 3 71 c2 55 6 72 17 72 12 0
15 -20 15 -110 0 -140 -13 -145 -82 -32 l-48 77 0 -77 c0 -63 -3 -78 -15 -78
-12 0 -15 19 -15 110 0 99 2 110 18 110 11 0 34 -27 62 -72z m183 5 l42 -68 3
68 c3 59 5 67 22 67 19 0 20 -8 20 -110 0 -102 -1 -110 -19 -110 -13 0 -34 24
-65 73 l-46 72 0 -72 c0 -66 -2 -73 -20 -73 -19 0 -20 7 -20 110 0 104 1 110
20 110 15 0 33 -20 63 -67z m227 52 c0 -11 -12 -15 -45 -15 -43 0 -45 -1 -45
-30 0 -28 2 -30 40 -30 29 0 40 -4 40 -15 0 -11 -11 -15 -40 -15 -38 0 -40 -2
-40 -30 0 -29 2 -30 45 -30 38 0 45 -3 45 -20 0 -18 -7 -20 -60 -20 l-60 0 0
110 0 110 60 0 c47 0 60 -3 60 -15z m93 -52 l42 -68 3 68 c3 59 5 67 22 67 19
0 20 -8 20 -110 0 -102 -1 -110 -19 -110 -13 0 -34 24 -65 73 l-46 72 0 -72
c0 -66 -2 -73 -20 -73 -19 0 -20 7 -20 110 0 104 1 110 20 110 15 0 33 -20 63
-67z m262 47 c0 -11 -9 -14 -36 -12 -81 7 -124 -84 -64 -135 36 -31 69 -27 73
10 3 22 -1 27 -17 27 -12 0 -21 7 -21 15 0 10 11 15 35 15 l35 0 0 -55 c0 -50
-2 -55 -26 -61 -42 -11 -97 3 -121 31 -43 50 -25 152 31 175 34 15 111 8 111
-10z m204 5 c57 -29 66 -124 17 -174 -20 -19 -38 -26 -86 -29 l-60 -4 0 111 0
111 50 0 c28 0 64 -7 79 -15z m91 -95 c0 -91 -3 -110 -15 -110 -12 0 -15 19
-15 110 0 91 3 110 15 110 12 0 15 -19 15 -110z m140 90 c23 -23 24 -33 9 -62
-8 -14 -8 -23 0 -31 16 -16 13 -73 -5 -88 -8 -7 -40 -14 -70 -17 l-54 -4 0
111 0 111 50 0 c37 0 55 -5 70 -20z m70 -90 c0 -103 -1 -110 -20 -110 -19 0
-20 7 -20 110 0 103 1 110 20 110 19 0 20 -7 20 -110z m60 101 c0 -24 -24 -71
-37 -71 -11 0 -13 7 -8 33 4 17 9 35 12 40 6 10 33 9 33 -2z"/>
<path d="M8821 5741 l-45 -6 57 -37 56 -38 11 38 c16 58 20 56 -79 43z"/>
<path d="M3626 5545 l16 -44 49 37 50 37 -38 7 c-21 4 -50 7 -65 7 l-27 1 15
-45z"/>
<path d="M3785 5344 c-27 -13 -76 -35 -108 -49 l-58 -25 22 -42 c33 -65 47
-78 91 -78 71 0 148 55 148 105 0 11 -10 41 -23 66 l-22 46 -50 -23z"/>
<path d="M4445 4374 c-22 -13 -44 -26 -50 -28 -5 -2 3 -17 19 -35 17 -17 33
-28 36 -24 10 12 43 104 38 108 -1 2 -21 -7 -43 -21z"/>
<path d="M4919 4028 c-17 -35 -42 -82 -56 -105 l-24 -41 56 -27 c50 -25 58
-26 86 -14 61 25 106 128 79 179 -8 16 -89 70 -104 70 -3 0 -20 -28 -37 -62z"/>
<path d="M5254 3866 c-20 -24 -36 -48 -35 -52 1 -5 17 -14 36 -21 l33 -11 4
64 c2 35 2 64 1 64 -1 0 -19 -20 -39 -44z"/>
<path d="M6012 3678 c-12 -28 -21 -52 -19 -53 1 -1 21 -5 43 -9 l42 -6 -16 60
c-9 33 -19 60 -22 60 -3 0 -16 -23 -28 -52z"/>
<path d="M4561 3023 c-33 -40 -32 -47 20 -114 l19 -24 0 88 c0 48 -2 87 -4 87
-3 0 -18 -17 -35 -37z"/>
<path d="M4817 2999 c-10 -36 -9 -39 13 -39 23 0 24 6 6 39 l-13 23 -6 -23z"/>
<path d="M5270 3001 c0 -5 -3 -16 -6 -25 -4 -12 0 -16 16 -16 16 0 20 4 16 16
-3 9 -6 20 -6 25 0 5 -4 9 -10 9 -5 0 -10 -4 -10 -9z"/>
<path d="M5740 3001 c0 -5 -3 -16 -6 -25 -4 -12 0 -16 16 -16 16 0 20 4 16 16
-3 9 -6 20 -6 25 0 5 -4 9 -10 9 -5 0 -10 -4 -10 -9z"/>
<path d="M5930 3015 c0 -30 3 -35 23 -35 22 0 47 16 47 31 0 15 -32 39 -51 39
-15 0 -19 -7 -19 -35z"/>
<path d="M6082 2992 c-10 -29 -9 -32 9 -32 20 0 23 12 10 44 -7 18 -9 16 -19
-12z"/>
<path d="M6540 3001 c0 -5 -3 -16 -6 -25 -4 -12 0 -16 16 -16 16 0 20 4 16 16
-3 9 -6 20 -6 25 0 5 -4 9 -10 9 -5 0 -10 -4 -10 -9z"/>
<path d="M7890 2970 c0 -88 5 -93 59 -65 27 14 41 39 41 78 0 26 -45 67 -75
67 -25 0 -25 -1 -25 -80z"/>
<path d="M8130 3020 c0 -23 5 -30 19 -30 28 0 47 26 31 45 -7 8 -21 15 -31 15
-14 0 -19 -7 -19 -30z"/>
<path d="M8130 2925 c0 -28 4 -35 19 -35 11 0 27 7 35 16 22 21 4 54 -29 54
-22 0 -25 -4 -25 -35z"/>
</g>
</svg>
